<svg preserveAspectRatio="none" overflow="visible" style="display: block;" width="18" height="20" viewBox="0 0 18 20" fill="none" xmlns="http://www.w3.org/2000/svg">
<path id="Vector" fill-rule="evenodd" clip-rule="evenodd" d="M1.28571 16.1133V0H12.2143V13.3333C13.279 13.3333 14.1429 12.4375 14.1429 11.3333V4.66667C14.1429 2.82583 15.5821 1.33333 17.3571 1.33333H18V2.66667H17.3571C16.2924 2.66667 15.4286 3.5625 15.4286 4.66667V11.3333C15.4286 13.1742 13.9894 14.6667 12.2143 14.6667V16.1133C12.9632 16.3883 13.5 17.1292 13.5 18V20H0V18C0 17.1292 0.536791 16.3883 1.28571 16.1133ZM2.57143 6.66667V16H10.9286V6.66667H2.57143ZM10.9286 5.33333V1.33333H2.57143V5.33333H10.9286ZM1.92857 17.3333C1.57339 17.3333 1.28571 17.6317 1.28571 18V18.6667H12.2143V18C12.2143 17.6317 11.9266 17.3333 11.5714 17.3333H1.92857Z" fill="var(--fill-0, white)"/>
</svg>
