<svg preserveAspectRatio="none" overflow="visible" style="display: block;" width="16.5454" height="13" viewBox="0 0 16.5454 13" fill="none" xmlns="http://www.w3.org/2000/svg">
<g id="Group">
<path id="Vector" fill-rule="evenodd" clip-rule="evenodd" d="M1.20604 8.86362H2.36363C2.68981 8.86362 2.95454 8.59889 2.95454 8.27271C2.95454 7.94653 2.68981 7.6818 2.36363 7.6818H1.20604C1.33132 6.16849 1.93227 4.78931 2.8594 3.69495L3.67663 4.51217C3.90708 4.74263 4.28172 4.74263 4.51217 4.51217C4.74263 4.28172 4.74263 3.90708 4.51217 3.67663L3.69495 2.8594C4.7899 1.93227 6.16849 1.33132 7.6818 1.20604V2.36363C7.6818 2.68981 7.94653 2.95454 8.27271 2.95454C8.59889 2.95454 8.86362 2.68981 8.86362 2.36363V1.20604C10.3769 1.33132 11.7561 1.93227 12.8505 2.8594L12.0332 3.67663C11.8028 3.90708 11.8028 4.28172 12.0332 4.51217C12.2637 4.74263 12.6383 4.74263 12.8688 4.51217L13.686 3.69495C14.6132 4.7899 15.2141 6.16849 15.3394 7.6818H14.1818C13.8556 7.6818 13.5909 7.94653 13.5909 8.27271C13.5909 8.59889 13.8556 8.86362 14.1818 8.86362H15.3394C15.2419 10.0448 14.8542 11.1439 14.248 12.09C14.0719 12.3647 14.1522 12.7305 14.4264 12.9066C14.7012 13.0827 15.067 13.0023 15.2431 12.7282C16.0674 11.4417 16.5454 9.91248 16.5454 8.27271C16.5454 3.70676 12.8387 0 8.27271 0C3.70676 0 0 3.70676 0 8.27271C0 9.91248 0.478046 11.4417 1.30236 12.7282C1.47845 13.0023 1.84422 13.0827 2.11899 12.9066C2.39318 12.7305 2.47354 12.3647 2.29745 12.09C1.69118 11.1439 1.30354 10.0448 1.20604 8.86362Z" fill="var(--fill-0, white)"/>
<path id="Vector_2" fill-rule="evenodd" clip-rule="evenodd" d="M8.59652 9.48406C8.49193 9.46456 8.38321 9.45452 8.27271 9.45452C7.29417 9.45452 6.49999 10.2487 6.49999 11.2272C6.49999 12.2058 7.29417 13 8.27271 13C9.25125 13 10.0454 12.2058 10.0454 11.2272C10.0454 10.7876 9.8853 10.3852 9.61998 10.0756L11.5138 6.79543C11.6769 6.51298 11.58 6.15134 11.2976 5.98825C11.0151 5.82516 10.6535 5.92207 10.4904 6.20452L8.59652 9.48406Z" fill="var(--fill-0, white)"/>
</g>
</svg>
