<svg preserveAspectRatio="none" overflow="visible" style="display: block;" width="18.1989" height="25" viewBox="0 0 18.1989 25" fill="none" xmlns="http://www.w3.org/2000/svg">
<g id="Give Key">
<path id="Vector" d="M18.1516 7.11886C18.1254 7.06652 18.0892 7.01987 18.0449 6.98156C18.0007 6.94326 17.9493 6.91405 17.8938 6.89563C17.8382 6.8772 17.7796 6.8699 17.7212 6.87417C17.6628 6.87843 17.6059 6.89416 17.5536 6.92046L15.7989 7.8002C15.6195 7.89015 15.4237 7.94283 15.2234 7.95509C15.0231 7.96734 14.8224 7.93891 14.6334 7.8715C14.4444 7.8041 14.2709 7.69911 14.1236 7.56288C13.9762 7.42664 13.858 7.26198 13.776 7.07882L12.2047 3.569C12.1236 3.38781 12.0796 3.19223 12.0754 2.99379C12.0711 2.79534 12.1066 2.59805 12.1798 2.41355C12.253 2.22904 12.3624 2.06106 12.5015 1.91951C12.6407 1.77796 12.8068 1.6657 12.99 1.58936L14.749 0.856676C14.8031 0.834226 14.8522 0.801347 14.8935 0.759917C14.9348 0.718486 14.9676 0.669317 14.9899 0.61522C15.0122 0.561123 15.0237 0.503159 15.0236 0.44464C15.0235 0.38612 15.0118 0.328194 14.9893 0.274171C14.9668 0.220148 14.9339 0.171088 14.8925 0.129794C14.851 0.0885009 14.8018 0.0557837 14.7477 0.0335132C14.6936 0.0112426 14.6356 -0.000144937 14.5771 1.39252e-06C14.5185 0.000147722 14.4606 0.0118252 14.4066 0.0343661L12.6476 0.767031C12.2477 0.928235 11.9008 1.19789 11.6459 1.54563C11.391 1.89337 11.2383 2.30537 11.205 2.73522C10.9903 2.86607 10.7354 2.9148 10.4876 2.87241C8.93311 2.57944 7.3601 2.3951 5.77998 2.32074C5.37673 2.28917 4.97562 2.40411 4.65028 2.64444C3.0544 3.94839 1.11869 6.16385 0.915725 8.11738L0.797384 9.2647C0.726683 9.95215 0.655982 10.6396 0.594415 11.2174C0.578312 11.3735 0.594574 11.5313 0.642185 11.6808C0.689797 11.8304 0.767735 11.9686 0.871132 12.0867C1.06848 12.3096 1.34362 12.4487 1.64017 12.4753C1.51613 12.8472 1.45287 13.2366 1.45284 13.6286C1.45284 13.7313 1.45757 13.8321 1.46516 13.9315C1.33905 13.9913 1.22221 14.0689 1.11826 14.162L0.952708 14.3113C0.841108 14.4109 0.747765 14.4949 0.671861 14.5775C0.636401 14.6163 0.5992 14.6511 0.561134 14.6876C0.455107 14.7853 0.357113 14.8914 0.268102 15.0048C0.156072 15.1653 0.0767754 15.3464 0.0347453 15.5376C-0.00728473 15.7287 -0.0112245 15.9263 0.023151 16.1191L0.0329527 16.2108C0.0578942 16.4559 0.117289 16.6963 0.209381 16.9248C0.391641 17.4535 0.681233 17.9387 1.05997 18.3502C1.24987 18.5546 1.4938 18.7011 1.76351 18.7726V19.1581C1.76353 19.2422 1.78728 19.3245 1.83203 19.3957L2.07633 19.7833L2.07285 20.1362C2.07215 20.2081 2.08887 20.279 2.12156 20.3431C2.15425 20.4071 2.20195 20.4622 2.26059 20.5038L2.4479 20.637L2.29931 20.7205C2.23061 20.7594 2.17346 20.8158 2.13367 20.884C2.09389 20.9521 2.0729 21.0297 2.07285 21.1086V21.7664C2.07286 21.8386 2.09039 21.9097 2.12392 21.9736C2.15746 22.0374 2.206 22.0922 2.26538 22.1332C2.18504 22.2163 2.14011 22.3274 2.14007 22.443V22.8611C2.14013 22.9301 2.15616 22.9981 2.18692 23.0599C2.21769 23.1216 2.26234 23.1754 2.31737 23.217L2.37262 23.2588L2.30779 23.3101C2.25548 23.3519 2.21325 23.4049 2.18421 23.4653C2.15518 23.5256 2.14009 23.5917 2.14007 23.6586V23.9297C2.14011 24.0405 2.18136 24.1474 2.2558 24.2295L2.82358 24.8542C2.86541 24.9001 2.91634 24.9368 2.97313 24.9619C3.02991 24.987 3.0913 24.9999 3.15338 25H3.75728C3.87544 25 3.98874 24.953 4.07227 24.8695L4.42861 24.5131C4.47 24.4718 4.50283 24.4227 4.52523 24.3686C4.54763 24.3146 4.55915 24.2566 4.55915 24.1981L4.56002 19.8038L4.84152 19.4231C4.8983 19.3464 4.92896 19.2535 4.92897 19.1581V18.7534C5.17521 18.6775 5.39729 18.5385 5.57312 18.3502C5.95173 17.9387 6.24124 17.4534 6.42349 16.9248C6.51558 16.6963 6.57498 16.456 6.59992 16.2109L6.60972 16.1191C6.67904 15.7299 6.59093 15.3291 6.36476 15.0048C6.27575 14.8914 6.17776 14.7853 6.07174 14.6876C6.03367 14.6511 5.99646 14.6163 5.9608 14.5776C5.8851 14.4949 5.79177 14.4109 5.68017 14.3113L5.51484 14.1625C5.41054 14.069 5.29327 13.991 5.16666 13.9311C5.17447 13.8308 5.18003 13.73 5.18003 13.6286C5.17956 13.3148 5.13974 13.0023 5.06152 12.6983C5.86842 12.3292 6.65541 11.9179 7.41922 11.4663C7.84623 11.252 8.28846 11.0695 8.74231 10.9202C10.5196 10.3495 12.1821 9.46938 13.6533 8.32032C14.0049 8.60835 14.4328 8.78783 14.8847 8.83686C15.3367 8.88589 15.7931 8.80235 16.1984 8.59643L17.9531 7.71669C18.0054 7.69049 18.052 7.65424 18.0903 7.61001C18.1286 7.56578 18.1578 7.51444 18.1762 7.45892C18.1947 7.4034 18.202 7.34479 18.1978 7.28644C18.1935 7.22809 18.1779 7.17115 18.1516 7.11886ZM3.12161 10.774C3.12813 10.7505 3.13487 10.727 3.14162 10.7035C3.52232 9.36913 3.88192 8.10868 5.43539 7.41298C5.48249 7.39172 5.53359 7.38074 5.58527 7.38079C5.70739 7.38743 5.82451 7.43148 5.92072 7.50696C6.18285 7.69015 6.36681 7.96491 6.4363 8.27706C6.35733 8.48156 5.60594 8.96798 5.10885 9.28951C4.39736 9.715 3.73145 10.2124 3.12161 10.774ZM3.75639 19.3917C3.69961 19.4684 3.66896 19.5613 3.66894 19.6567L3.66807 24.0137L3.57279 24.1089H3.35047L3.09203 23.8244L3.16795 23.7643C3.22026 23.7226 3.26249 23.6695 3.29153 23.6092C3.32056 23.5489 3.33565 23.4828 3.33567 23.4158V23.0908C3.33562 23.0218 3.31958 22.9538 3.28882 22.8921C3.25806 22.8303 3.21341 22.7765 3.15838 22.7349L3.07876 22.6749L3.1103 22.6571C3.17874 22.6182 3.23565 22.5619 3.27524 22.4939C3.31483 22.4259 3.33568 22.3486 3.33567 22.2698V21.9213C3.33565 21.8334 3.30962 21.7475 3.26084 21.6743C3.21207 21.6011 3.14273 21.544 3.06157 21.5102L2.96389 21.4693V21.3688L3.21755 21.2256C3.28625 21.1868 3.34341 21.1304 3.38319 21.0622C3.42298 20.994 3.44396 20.9165 3.44401 20.8375V20.4812C3.444 20.4101 3.42695 20.34 3.39429 20.2767C3.36163 20.2135 3.3143 20.1591 3.25627 20.1179L2.96607 19.9121L2.96868 19.6611C2.96941 19.5755 2.94563 19.4916 2.90016 19.4192L2.65455 19.0293V18.8314H4.03791V19.011L3.75639 19.3917ZM5.45605 15.332C5.52905 15.3979 5.59643 15.4698 5.6575 15.5469C5.73423 15.6878 5.75837 15.8514 5.72559 16.0085L5.71297 16.1238C5.69382 16.2999 5.64927 16.4722 5.58071 16.6355C5.43796 17.0484 5.21148 17.4275 4.91546 17.7489C4.86026 17.8091 4.79314 17.8572 4.71835 17.8902C4.64357 17.9232 4.56275 17.9402 4.48103 17.9403H2.15223C2.07047 17.9402 1.98962 17.9232 1.9148 17.8902C1.83997 17.8573 1.77282 17.8091 1.71758 17.7489C1.4212 17.4275 1.19462 17.0483 1.05212 16.635C0.983531 16.4719 0.938977 16.2997 0.919855 16.1238L0.907246 16.0085C0.874371 15.8515 0.898429 15.6878 0.975118 15.5469C1.03632 15.4698 1.10377 15.3979 1.17678 15.332C1.22921 15.2819 1.27946 15.2332 1.32776 15.1806C1.38606 15.1175 1.45915 15.0535 1.54508 14.9769L1.66315 14.8706C1.71934 15.0274 1.78894 15.1791 1.87117 15.3239C1.80158 15.3613 1.74331 15.4167 1.70244 15.4844C1.66158 15.552 1.63961 15.6293 1.63883 15.7083C1.63913 15.9491 1.73496 16.18 1.90527 16.3502C2.07559 16.5205 2.30648 16.6162 2.54729 16.6163H4.03028C4.27132 16.616 4.50238 16.52 4.67268 16.3494C4.84298 16.1788 4.9386 15.9476 4.93852 15.7066C4.9374 15.6481 4.92476 15.5904 4.90133 15.5368C4.8779 15.4833 4.84413 15.4348 4.80197 15.3943C4.75981 15.3538 4.71007 15.3219 4.6556 15.3006C4.60113 15.2794 4.543 15.269 4.48453 15.2702C4.36446 15.2719 4.24981 15.3205 4.16498 15.4055C4.08015 15.4905 4.03183 15.6052 4.0303 15.7253L3.738 15.722C3.71339 15.6287 3.65877 15.5461 3.58256 15.4869C3.50636 15.4278 3.4128 15.3953 3.31632 15.3946C3.03252 15.3946 2.7295 15.1171 2.53843 14.6611H4.49542C4.64847 14.6589 4.79668 14.7147 4.91027 14.8173L5.08779 14.9769C5.17372 15.0535 5.24681 15.1175 5.3049 15.1805C5.35337 15.2332 5.40363 15.2819 5.45605 15.332ZM4.28894 13.6286C4.28894 13.6767 4.27871 13.7223 4.27643 13.77H2.35254C2.35031 13.7224 2.34389 13.6777 2.34389 13.6286C2.34352 13.3744 2.37771 13.1214 2.44551 12.8764C2.47891 12.9578 2.52902 13.0313 2.59261 13.0922C2.65619 13.153 2.73184 13.1998 2.81465 13.2296C2.91361 13.2633 3.01775 13.2792 3.12226 13.2766C3.49961 13.254 3.87107 13.1723 4.22311 13.0346C4.26559 13.2298 4.28765 13.4288 4.28894 13.6286ZM8.43574 10.0835C7.93052 10.2484 7.43945 10.4539 6.96732 10.6979C5.13148 11.7782 3.72441 12.3355 3.23973 12.3908C3.18493 11.5955 4.5663 10.7018 5.59289 10.0374C6.57009 9.40522 7.27623 8.9484 7.31996 8.37018C7.30559 8.05416 7.21797 7.7458 7.06401 7.46945C6.91005 7.19309 6.69397 6.9563 6.43282 6.77776C6.24268 6.62873 6.01598 6.53354 5.77644 6.50216C5.5369 6.47078 5.29333 6.50435 5.07122 6.59938C3.13879 7.46476 2.68498 9.05543 2.28472 10.459C2.18769 10.7993 2.09589 11.1208 1.98603 11.4262C1.96905 11.4775 1.93566 11.5217 1.89103 11.552C1.8464 11.5824 1.79301 11.5972 1.73912 11.5942C1.7016 11.5929 1.66475 11.5839 1.63087 11.5677C1.59699 11.5516 1.56682 11.5286 1.54224 11.5002C1.51948 11.4749 1.50222 11.4451 1.49155 11.4127C1.48088 11.3804 1.47703 11.3462 1.48024 11.3122C1.54203 10.7331 1.61294 10.0444 1.68365 9.35566L1.80199 8.20965C1.96493 6.64247 3.68482 4.58365 5.21371 3.33495C5.37508 3.23074 5.56816 3.18711 5.75866 3.21182C7.29673 3.28556 8.82783 3.46581 10.341 3.7513C10.6631 3.81015 10.9952 3.77861 11.3005 3.66017C11.3253 3.75277 11.3557 3.84379 11.3915 3.93273L12.9628 7.44256C12.9946 7.51353 13.0392 7.57504 13.077 7.64171C11.687 8.72451 10.1154 9.55135 8.43574 10.0835Z" fill="var(--fill-0, white)"/>
</g>
</svg>
